<?xml version="1.0" encoding="utf-8"?>
<!-- Generator: Adobe Illustrator 28.3.0, SVG Export Plug-In . SVG Version: 6.00 Build 0)  -->
<svg version="1.1" id="Capa_1" xmlns="http://www.w3.org/2000/svg" xmlns:xlink="http://www.w3.org/1999/xlink" x="0px" y="0px"
	 viewBox="0 0 24 24" style="enable-background:new 0 0 24 24;" xml:space="preserve">
<style type="text/css">
	.st0{fill:#FFFFFF;}
</style>
<path class="st0" d="M7,22c-0.5,0-1-0.2-1.4-0.6S5,20.5,5,20s0.2-1,0.6-1.4S6.5,18,7,18s1,0.2,1.4,0.6S9,19.5,9,20s-0.2,1-0.6,1.4
	S7.6,22,7,22z M17,22c-0.5,0-1-0.2-1.4-0.6C15.2,21,15,20.5,15,20s0.2-1,0.6-1.4C16,18.2,16.5,18,17,18c0.6,0,1,0.2,1.4,0.6
	S19,19.5,19,20s-0.2,1-0.6,1.4S17.6,22,17,22z M6.2,6l2.4,5h7l2.8-5H6.2z M5.2,4H20c0.4,0,0.7,0.2,0.9,0.5c0.2,0.3,0.2,0.7,0,1
	l-3.5,6.4c-0.2,0.3-0.4,0.6-0.7,0.8c-0.3,0.2-0.6,0.3-1,0.3H8.1L7,15h12v2H7c-0.8,0-1.3-0.3-1.7-1c-0.4-0.7-0.4-1.3-0.1-2l1.3-2.5
	L3,4H1V2h3.2L5.2,4z M8.6,11h7H8.6z"/>
</svg>
